<?xml version="1.0" standalone="no"?><!DOCTYPE svg PUBLIC "-//W3C//DTD SVG 1.1//EN" "http://www.w3.org/Graphics/SVG/1.1/DTD/svg11.dtd"><svg height="1024" node-id="1" sillyvg="true" template-height="1024" template-width="1024" version="1.1" viewBox="0 0 1024 1024" width="1024" xmlns="http://www.w3.org/2000/svg" xmlns:xlink="http://www.w3.org/1999/xlink"><defs node-id="17"></defs><path d="M 660.50 199.70 L 653.60 207.50 L 647.70 213.50 L 640.90 219.80 L 632.10 227.40 L 618.70 237.70 L 602.50 248.40 L 593.60 253.60 L 583.80 258.70 L 573.80 263.40 L 563.10 267.70 L 551.60 271.70 L 543.00 274.30 L 533.90 276.60 L 524.40 278.50 L 514.50 280.10 L 504.60 281.20 L 494.40 281.80 L 483.70 282.00 L 472.60 281.60 L 461.70 280.80 L 450.30 279.20 L 438.50 277.10 L 426.30 274.20 L 416.80 271.60 L 407.00 268.40 L 396.90 264.80 L 386.50 260.50 L 365.90 251.40 L 356.30 247.80 L 346.80 244.70 L 337.40 242.30 L 328.10 240.40 L 318.60 239.00 L 309.30 238.20 L 300.10 237.80 L 291.00 238.00 L 282.10 238.60 L 273.10 239.70 L 264.30 241.20 L 255.70 243.20 L 247.20 245.60 L 238.90 248.40 L 230.70 251.60 L 222.80 255.20 L 215.10 259.20 L 207.50 263.50 L 200.20 268.10 L 191.30 274.40 L 182.90 281.10 L 174.90 288.30 L 167.40 295.90 L 160.20 303.90 L 153.60 312.30 L 147.50 321.00 L 141.90 330.00 L 136.80 339.40 L 132.30 348.90 L 128.50 358.70 L 125.20 368.70 L 123.00 376.80 L 121.30 385.00 L 120.00 393.30 L 119.20 401.60 L 118.80 410.10 L 118.90 418.50 L 119.40 426.90 L 120.50 435.40 L 122.10 443.90 L 124.20 452.50 L 126.70 460.80 L 129.90 469.10 L 133.60 477.40 L 137.90 485.80 L 142.80 494.10 L 148.10 502.00 L 154.00 509.80 L 160.60 517.60 L 168.00 525.40 L 186.40 542.80 L 195.40 551.90 L 203.40 560.60 L 210.30 568.90 L 217.00 577.70 L 222.90 586.10 L 227.90 594.20 L 232.10 601.80 L 236.00 609.90 L 239.30 617.70 L 242.00 625.20 L 244.10 632.40 L 245.80 639.80 L 247.20 647.10 L 248.70 660.90 L 249.00 670.00 L 248.90 678.90 L 248.40 687.50 L 247.10 700.40 L 244.10 725.00 L 242.40 744.70 L 242.30 752.40 L 243.30 765.70 L 245.70 777.10 L 247.50 782.80 L 249.60 788.20 L 252.40 793.80 L 255.70 799.50 L 259.70 805.30 L 264.00 810.60 L 269.00 816.20 L 275.00 821.90 L 281.90 827.90 L 288.50 833.00 L 294.90 837.40 L 301.20 841.20 L 307.30 844.40 L 313.30 847.10 L 319.60 849.40 L 325.80 851.30 L 331.90 852.70 L 338.00 853.70 L 344.00 854.30 L 351.50 854.50 L 359.00 854.20 L 366.50 853.40 L 374.00 852.10 L 388.60 848.10 L 403.30 842.60 L 422.40 833.50 L 432.00 828.40 L 446.10 820.20 L 487.60 794.90 L 496.70 789.60 L 514.50 780.40 L 523.50 776.40 L 532.30 773.10 L 540.90 770.50 L 547.50 769.00 L 554.00 768.00 L 560.50 767.60 L 566.90 767.60 L 571.90 768.10 L 577.00 768.90 L 582.10 770.20 L 587.20 771.90 L 592.30 774.10 L 611.80 783.00 L 630.50 790.90 L 648.70 798.00 L 666.10 804.20 L 684.10 809.90 L 701.30 814.90 L 717.70 819.00 L 733.40 822.30 L 746.40 824.60 L 770.60 827.80 L 792.70 829.20 L 803.90 829.30 L 814.40 828.90 L 824.30 828.20 L 833.60 827.10 L 842.30 825.60 L 851.30 823.60 L 859.60 821.20 L 867.20 818.50 L 874.30 815.50 L 880.70 812.20 L 887.10 808.30 L 892.90 804.10 L 898.00 799.60 L 902.50 794.90 L 906.50 789.80 L 909.40 785.20 L 911.90 780.50 L 914.10 775.50 L 915.80 770.30 L 917.10 764.80 L 918.00 759.00 L 918.40 753.40 L 918.40 747.50 L 917.90 741.20 L 917.00 734.70 L 915.60 727.80 L 913.60 720.60 L 907.40 701.00 L 901.30 683.10 L 889.00 650.70 L 876.90 622.50 L 867.80 603.00 L 859.40 585.90 L 836.40 541.70 L 826.60 521.30 L 820.70 506.30 L 818.40 498.80 L 816.60 491.50 L 815.50 484.30 L 814.80 473.30 L 815.10 467.60 L 816.60 456.20 L 818.00 450.20 L 822.10 437.30 L 825.60 428.70 L 830.10 419.40 L 839.40 401.90 L 842.50 394.50 L 845.10 386.80 L 847.20 378.70 L 848.70 370.60 L 849.70 362.20 L 850.20 353.70 L 850.30 344.90 L 849.90 336.20 L 849.00 327.30 L 847.70 318.40 L 846.00 309.50 L 843.90 300.60 L 838.50 283.00 L 835.30 274.30 L 827.80 257.50 L 819.10 241.50 L 809.20 226.40 L 798.40 212.80 L 792.60 206.40 L 786.60 200.50 L 780.40 195.10 L 774.20 190.20 L 767.50 185.70 L 760.90 181.80 L 754.10 178.40 L 747.30 175.70 L 741.60 173.90 L 736.00 172.60 L 730.30 171.60 L 724.50 171.20 L 718.70 171.10 L 713.00 171.60 L 707.20 172.50 L 701.40 174.00 L 695.50 175.90 L 689.50 178.50 L 683.90 181.40 L 678.20 184.90 L 672.40 189.10 L 666.50 194.00 L 660.50 199.70 Z" fill="#ebe5f5" fill-rule="nonzero" node-id="19" stroke="none" target-height="683.4" target-width="799.60004" target-x="118.8" target-y="171.1"></path><path d="M 600.80 583.40 L 551.00 850.70 L 476.70 836.80 L 526.60 569.60 L 600.80 583.40 Z" fill="#863bf0" fill-rule="nonzero" node-id="21" stroke="none" target-height="281.10004" target-width="124.099976" target-x="476.7" target-y="569.6"></path><path d="M 783.70 472.30 L 758.10 609.60 L 757.60 610.70 L 756.80 611.60 L 755.70 612.00 L 754.40 612.10 L 394.80 545.00 L 437.10 318.00 L 710.20 368.90 L 717.60 370.60 L 724.70 372.80 L 731.30 375.50 L 737.70 378.60 L 743.90 382.30 L 749.70 386.30 L 755.00 390.70 L 760.00 395.50 L 764.70 400.70 L 768.90 406.20 L 772.60 411.90 L 775.90 417.90 L 778.80 424.20 L 781.10 430.60 L 782.90 437.20 L 784.20 444.10 L 785.00 451.00 L 785.10 458.00 L 784.70 465.10 L 783.70 472.30 Z" fill="#863bf0" fill-rule="nonzero" node-id="23" stroke="none" target-height="294.09998" target-width="390.3" target-x="394.8" target-y="318"></path><path d="M 513.90 426.30 L 488.50 562.40 L 299.70 527.20 L 325.10 391.00 L 326.90 383.60 L 329.20 376.50 L 332.00 369.70 L 335.30 363.20 L 339.20 357.10 L 343.50 351.30 L 348.20 345.90 L 353.40 340.80 L 358.90 336.20 L 364.80 332.00 L 370.90 328.30 L 377.50 325.00 L 384.20 322.20 L 391.20 319.90 L 398.30 318.20 L 405.80 316.90 L 413.20 316.30 L 420.80 316.20 L 428.60 316.70 L 436.50 317.90 L 444.30 319.60 L 451.70 321.90 L 458.70 324.70 L 465.40 328.10 L 471.90 331.90 L 478.00 336.10 L 483.70 340.70 L 489.00 345.80 L 493.90 351.20 L 498.30 356.90 L 502.20 362.90 L 505.70 369.20 L 508.70 375.80 L 511.20 382.60 L 513.10 389.50 L 514.50 396.70 L 515.30 403.90 L 515.40 411.20 L 515.00 418.70 L 513.90 426.30 Z" fill="#490f9c" fill-rule="nonzero" node-id="25" stroke="none" target-height="246.20001" target-width="215.70001" target-x="299.7" target-y="316.2"></path><path d="M 601.80 489.90 L 598.40 489.00 L 595.30 487.80 L 592.40 486.10 L 589.70 484.10 L 587.40 481.70 L 585.40 479.10 L 583.70 476.30 L 582.40 473.30 L 581.50 470.00 L 581.00 466.70 L 580.90 463.30 L 581.40 459.80 L 582.20 456.30 L 583.50 453.10 L 585.20 450.20 L 587.20 447.50 L 589.50 445.20 L 592.10 443.10 L 594.90 441.40 L 597.90 440.10 L 601.10 439.20 L 604.40 438.70 L 607.80 438.60 L 611.30 439.00 L 614.60 439.80 L 617.70 441.10 L 620.60 442.80 L 623.30 444.80 L 625.70 447.20 L 627.80 449.80 L 629.50 452.70 L 630.80 455.80 L 806.50 488.60 L 801.70 514.00 L 626.00 481.30 L 623.70 483.70 L 621.10 485.80 L 618.20 487.50 L 615.10 488.80 L 611.80 489.80 L 608.50 490.30 L 605.20 490.30 L 601.80 489.90 Z" fill="#490f9c" fill-rule="nonzero" node-id="27" stroke="none" target-height="75.399994" target-width="225.59998" target-x="580.9" target-y="438.6"></path><path d="M 507.70 428.80 L 482.90 561.40 L 305.10 528.30 L 329.80 395.60 L 331.50 388.30 L 333.70 381.40 L 336.40 374.80 L 339.60 368.50 L 343.30 362.40 L 347.40 356.80 L 351.80 351.50 L 356.70 346.50 L 362.00 342.00 L 367.50 337.90 L 373.40 334.20 L 379.60 331.00 L 385.90 328.20 L 392.50 326.00 L 399.30 324.20 L 406.30 323.00 L 413.40 322.30 L 420.50 322.20 L 427.80 322.70 L 435.30 323.70 L 442.60 325.40 L 449.50 327.60 L 456.20 330.30 L 462.50 333.50 L 468.60 337.20 L 474.30 341.20 L 479.60 345.70 L 484.60 350.60 L 489.20 355.80 L 493.30 361.40 L 497.00 367.20 L 500.30 373.30 L 503.00 379.70 L 505.30 386.20 L 507.10 393.00 L 508.40 400.00 L 509.10 407.00 L 509.20 414.10 L 508.70 421.40 L 507.70 428.80 Z" fill="#490f9c" fill-rule="nonzero" node-id="29" stroke="none" target-height="239.20001" target-width="204.1" target-x="305.1" target-y="322.2"></path><path d="M 606.80 477.10 L 609.20 476.80 L 611.30 476.20 L 615.20 474.00 L 618.00 470.60 L 618.90 468.60 L 619.80 464.10 L 618.90 459.60 L 616.70 455.80 L 613.30 452.90 L 611.30 452.00 L 609.20 451.40 L 606.80 451.20 L 604.40 451.40 L 602.30 452.00 L 598.50 454.20 L 595.60 457.60 L 594.70 459.60 L 593.90 464.10 L 594.70 468.60 L 596.90 472.50 L 600.30 475.30 L 602.30 476.20 L 604.40 476.80 L 606.80 477.10 Z" fill="#ffffff" fill-rule="nonzero" node-id="31" stroke="none" target-height="25.899994" target-width="25.899963" target-x="593.9" target-y="451.2"></path><path d="M 808.50 488.50 L 792.80 572.20 L 792.40 572.60 L 791.40 572.80 L 750.60 565.20 L 750.40 564.90 L 766.20 480.40 L 808.30 488.20 L 808.50 488.50 Z" fill="#863bf0" fill-rule="nonzero" node-id="33" stroke="none" target-height="92.399994" target-width="58.099976" target-x="750.4" target-y="480.4"></path><path d="M 363.90 480.70 L 364.80 484.50 L 366.20 488.40 L 368.10 492.20 L 372.40 499.30 L 379.50 508.30 L 374.30 508.40 L 369.60 508.00 L 365.40 507.20 L 361.40 506.00 L 354.70 502.70 L 351.70 500.70 L 347.00 496.60 L 342.00 490.60 L 335.90 492.10 L 329.60 493.30 L 323.30 493.90 L 316.80 494.10 L 310.40 493.90 L 304.30 493.30 L 298.30 492.20 L 292.30 490.60 L 286.60 488.80 L 281.20 486.50 L 276.00 483.90 L 271.00 480.90 L 266.30 477.70 L 262.00 474.10 L 257.90 470.20 L 254.20 466.00 L 250.90 461.60 L 248.00 457.00 L 245.40 452.10 L 243.40 447.00 L 241.70 441.80 L 240.60 436.30 L 239.90 430.60 L 239.80 424.90 L 240.10 419.30 L 241.00 413.90 L 242.40 408.60 L 244.20 403.40 L 246.40 398.30 L 249.10 393.50 L 252.20 388.90 L 255.60 384.50 L 259.40 380.30 L 263.60 376.40 L 268.10 372.70 L 272.90 369.40 L 278.00 366.40 L 283.30 363.80 L 289.00 361.40 L 294.80 359.50 L 300.80 358.00 L 307.10 356.90 L 313.60 356.20 L 320.10 355.90 L 326.50 356.20 L 332.70 356.80 L 338.70 357.90 L 344.60 359.40 L 350.30 361.30 L 355.70 363.60 L 360.90 366.20 L 365.90 369.20 L 370.60 372.40 L 374.90 376.00 L 379.00 379.90 L 382.70 384.00 L 386.00 388.50 L 388.90 393.10 L 391.50 398.00 L 393.60 403.10 L 395.20 408.30 L 396.30 413.80 L 397.00 419.50 L 397.10 425.70 L 396.70 431.70 L 395.60 437.60 L 394.00 443.30 L 391.80 448.90 L 389.20 454.20 L 386.10 459.30 L 382.50 464.20 L 378.40 468.80 L 374.00 473.00 L 369.20 477.00 L 363.90 480.70 Z" fill="#ffffff" fill-rule="nonzero" node-id="35" stroke="none" target-height="152.5" target-width="157.3" target-x="239.8" target-y="355.9"></path><path d="M 488.70 562.50 L 483.10 580.20 L 476.50 597.20 L 472.30 606.80 L 463.30 624.10 L 454.50 638.20 L 449.60 645.20 L 444.20 651.90 L 438.50 658.50 L 432.30 664.80 L 425.80 670.60 L 418.80 676.10 L 413.20 679.80 L 407.50 683.30 L 401.40 686.30 L 395.00 689.10 L 388.60 691.40 L 381.80 693.30 L 374.60 694.70 L 367.10 695.70 L 359.60 696.10 L 351.70 696.00 L 343.40 695.30 L 334.50 694.00 L 319.70 690.60 L 307.60 686.40 L 302.60 684.10 L 297.40 681.20 L 292.80 678.20 L 288.70 675.00 L 285.10 671.80 L 281.90 668.30 L 278.30 663.60 L 275.20 658.70 L 272.70 653.70 L 270.70 648.40 L 269.20 643.00 L 268.00 637.40 L 267.30 631.80 L 267.00 625.90 L 267.20 618.20 L 267.90 610.40 L 269.10 602.50 L 272.70 587.10 L 275.00 579.70 L 278.80 568.90 L 282.80 559.10 L 290.70 542.50 L 299.30 527.20 L 488.70 562.50 Z" fill="#863bf0" fill-rule="nonzero" node-id="37" stroke="none" target-height="168.89996" target-width="221.70001" target-x="267" target-y="527.2"></path><path d="M 318.50 438.10 L 322.20 437.40 L 323.90 436.60 L 326.70 434.30 L 328.60 431.10 L 329.20 427.30 L 328.60 423.50 L 326.70 420.30 L 323.90 418.00 L 320.40 416.70 L 316.50 416.70 L 314.70 417.20 L 311.50 419.10 L 309.10 421.90 L 308.30 423.50 L 307.70 427.30 L 308.30 431.10 L 310.20 434.30 L 313.00 436.60 L 314.70 437.40 L 318.50 438.10 Z" fill="#863bf0" fill-rule="nonzero" node-id="39" stroke="none" target-height="21.399994" target-width="21.5" target-x="307.7" target-y="416.7"></path><path d="M 270.20 433.40 L 274.00 432.70 L 275.60 431.90 L 278.50 429.50 L 280.30 426.30 L 281.00 422.50 L 280.30 418.70 L 278.50 415.50 L 275.60 413.20 L 274.00 412.40 L 270.20 411.70 L 266.40 412.40 L 263.20 414.20 L 260.80 417.10 L 260.00 418.70 L 259.30 422.50 L 260.00 426.30 L 261.90 429.50 L 264.70 431.90 L 266.40 432.70 L 270.20 433.40 Z" fill="#863bf0" fill-rule="nonzero" node-id="41" stroke="none" target-height="21.699982" target-width="21.700012" target-x="259.3" target-y="411.7"></path><path d="M 366.30 442.70 L 370.10 442.00 L 373.30 440.10 L 375.70 437.30 L 376.50 435.60 L 377.20 431.80 L 376.50 428.00 L 375.70 426.40 L 373.30 423.50 L 370.10 421.70 L 366.30 421.00 L 362.50 421.70 L 359.30 423.50 L 356.90 426.40 L 356.10 428.00 L 355.40 431.80 L 356.10 435.60 L 358.00 438.80 L 360.80 441.20 L 362.50 442.00 L 366.30 442.70 Z" fill="#863bf0" fill-rule="nonzero" node-id="43" stroke="none" target-height="21.700012" target-width="21.800018" target-x="355.4" target-y="421"></path><path d="M 600.80 583.40 L 592.20 629.90 L 524.30 581.70 L 526.60 569.60 L 600.80 583.40 Z" fill="#490f9c" fill-rule="nonzero" node-id="45" stroke="none" target-height="60.30005" target-width="76.5" target-x="524.3" target-y="569.6"></path></svg>