<?xml version="1.0" standalone="no"?><!DOCTYPE svg PUBLIC "-//W3C//DTD SVG 1.1//EN" "http://www.w3.org/Graphics/SVG/1.1/DTD/svg11.dtd"><svg height="1024" node-id="1" sillyvg="true" template-height="1024" template-width="1024" version="1.1" viewBox="0 0 1024 1024" width="1024" xmlns="http://www.w3.org/2000/svg" xmlns:xlink="http://www.w3.org/1999/xlink"><defs node-id="62"></defs><path d="M 990.20 559.30 L 990.40 546.90 L 989.60 525.80 L 988.50 511.90 L 986.80 497.20 L 984.20 480.30 L 979.50 456.70 L 976.30 444.00 L 972.70 431.30 L 968.50 418.40 L 963.60 405.00 L 955.20 385.20 L 950.40 375.30 L 945.10 365.30 L 939.50 355.50 L 933.40 345.80 L 926.70 336.30 L 919.60 326.70 L 912.10 317.60 L 904.10 308.70 L 895.40 300.00 L 886.10 291.40 L 878.50 285.00 L 870.50 278.70 L 862.00 272.70 L 853.00 266.90 L 843.50 261.20 L 834.10 256.10 L 824.10 251.20 L 813.50 246.50 L 802.40 242.20 L 790.70 238.10 L 772.00 232.30 L 754.20 227.10 L 737.10 222.60 L 720.90 218.70 L 705.50 215.40 L 689.30 212.40 L 673.90 210.00 L 659.30 208.00 L 645.30 206.60 L 632.00 205.70 L 618.20 205.10 L 605.10 204.90 L 592.60 205.20 L 580.60 205.90 L 569.30 206.90 L 546.40 210.10 L 525.70 214.60 L 516.00 217.30 L 503.80 221.20 L 492.30 225.40 L 481.40 230.00 L 471.10 234.90 L 460.90 240.40 L 451.20 246.10 L 442.00 251.90 L 433.30 258.10 L 422.10 266.80 L 411.50 275.70 L 401.60 284.80 L 387.50 298.60 L 352.10 334.80 L 331.30 355.10 L 324.50 361.20 L 310.80 372.10 L 303.70 376.90 L 296.40 381.40 L 288.80 385.50 L 280.90 389.10 L 272.50 392.30 L 263.50 395.10 L 254.30 397.40 L 244.30 399.30 L 213.80 403.10 L 194.90 405.80 L 182.40 408.10 L 170.30 410.80 L 158.40 413.90 L 149.60 416.70 L 141.00 419.80 L 132.60 423.30 L 124.50 427.10 L 116.50 431.40 L 108.80 436.30 L 101.30 441.60 L 93.90 447.50 L 88.40 452.50 L 83.00 458.00 L 77.80 463.90 L 72.70 470.30 L 67.70 477.20 L 63.10 484.10 L 58.80 491.70 L 54.50 499.80 L 50.40 508.70 L 46.50 518.20 L 43.00 527.90 L 40.10 537.30 L 37.80 546.40 L 36.00 555.30 L 34.70 563.90 L 33.90 572.80 L 33.60 581.50 L 33.70 589.90 L 34.30 598.10 L 35.30 606.10 L 36.80 614.20 L 38.60 622.00 L 40.80 629.70 L 43.50 637.20 L 46.50 644.50 L 50.70 653.50 L 55.50 662.20 L 60.80 670.70 L 66.60 678.90 L 72.80 686.80 L 79.40 694.50 L 86.50 701.90 L 94.00 709.10 L 101.80 715.90 L 109.90 722.40 L 118.30 728.70 L 127.10 734.70 L 133.90 738.90 L 140.70 742.50 L 147.40 745.50 L 154.10 748.10 L 168.00 752.00 L 181.90 754.50 L 191.20 755.40 L 200.60 755.90 L 210.00 755.90 L 224.10 755.50 L 266.10 752.40 L 279.90 751.60 L 293.50 751.40 L 302.40 751.80 L 311.20 752.60 L 319.90 753.80 L 326.30 755.20 L 332.60 756.90 L 338.80 759.10 L 345.00 761.60 L 354.20 766.00 L 371.80 775.40 L 410.70 798.10 L 434.00 810.60 L 454.70 820.10 L 465.50 824.40 L 477.20 828.50 L 490.00 832.40 L 509.70 837.40 L 532.40 841.60 L 543.90 843.20 L 569.70 845.70 L 584.10 846.50 L 600.70 847.00 L 615.40 847.00 L 628.40 846.60 L 641.30 845.70 L 652.70 844.50 L 662.80 842.90 L 672.70 840.80 L 681.70 838.30 L 689.60 835.60 L 697.40 832.30 L 704.50 828.80 L 711.10 824.90 L 723.70 816.10 L 729.60 811.20 L 738.30 803.40 L 777.00 765.60 L 789.30 754.50 L 794.60 750.30 L 799.90 746.40 L 805.40 743.00 L 811.10 739.90 L 818.90 736.30 L 826.90 733.20 L 835.10 730.40 L 847.50 726.80 L 885.70 717.20 L 902.40 712.00 L 910.50 708.90 L 918.40 705.40 L 926.10 701.20 L 933.60 696.50 L 938.90 692.50 L 944.10 688.10 L 949.10 683.10 L 954.10 677.60 L 958.50 671.80 L 962.80 665.40 L 967.00 658.10 L 971.00 650.00 L 974.40 641.90 L 977.60 632.80 L 980.60 622.60 L 983.40 611.30 L 985.50 600.30 L 987.40 588.00 L 989.00 574.40 L 990.20 559.30 Z" fill="#8c71ff" fill-rule="nonzero" node-id="64" stroke="none" target-height="642.1" target-width="956.80005" target-x="33.6" target-y="204.9"></path><g node-id="176"><path d="M 990.20 559.30 L 990.40 546.90 L 989.60 525.80 L 988.50 511.90 L 986.80 497.20 L 984.20 480.30 L 979.50 456.70 L 976.30 444.00 L 972.70 431.30 L 968.50 418.40 L 963.60 405.00 L 955.20 385.20 L 950.40 375.30 L 945.10 365.30 L 939.50 355.50 L 933.40 345.80 L 926.70 336.30 L 919.60 326.70 L 912.10 317.60 L 904.10 308.70 L 895.40 300.00 L 886.10 291.40 L 878.50 285.00 L 870.50 278.70 L 862.00 272.70 L 853.00 266.90 L 843.50 261.20 L 834.10 256.10 L 824.10 251.20 L 813.50 246.50 L 802.40 242.20 L 790.70 238.10 L 772.00 232.30 L 754.20 227.10 L 737.10 222.60 L 720.90 218.70 L 705.50 215.40 L 689.30 212.40 L 673.90 210.00 L 659.30 208.00 L 645.30 206.60 L 632.00 205.70 L 618.20 205.10 L 605.10 204.90 L 592.60 205.20 L 580.60 205.90 L 569.30 206.90 L 546.40 210.10 L 525.70 214.60 L 516.00 217.30 L 503.80 221.20 L 492.30 225.40 L 481.40 230.00 L 471.10 234.90 L 460.90 240.40 L 451.20 246.10 L 442.00 251.90 L 433.30 258.10 L 422.10 266.80 L 411.50 275.70 L 401.60 284.80 L 387.50 298.60 L 352.10 334.80 L 331.30 355.10 L 324.50 361.20 L 310.80 372.10 L 303.70 376.90 L 296.40 381.40 L 288.80 385.50 L 280.90 389.10 L 272.50 392.30 L 263.50 395.10 L 254.30 397.40 L 244.30 399.30 L 213.80 403.10 L 194.90 405.80 L 182.40 408.10 L 170.30 410.80 L 158.40 413.90 L 149.60 416.70 L 141.00 419.80 L 132.60 423.30 L 124.50 427.10 L 116.50 431.40 L 108.80 436.30 L 101.30 441.60 L 93.90 447.50 L 88.40 452.50 L 83.00 458.00 L 77.80 463.90 L 72.70 470.30 L 67.70 477.20 L 63.10 484.10 L 58.80 491.70 L 54.50 499.80 L 50.40 508.70 L 46.50 518.20 L 43.00 527.90 L 40.10 537.30 L 37.80 546.40 L 36.00 555.30 L 34.70 563.90 L 33.90 572.80 L 33.60 581.50 L 33.70 589.90 L 34.30 598.10 L 35.30 606.10 L 36.80 614.20 L 38.60 622.00 L 40.80 629.70 L 43.50 637.20 L 46.50 644.50 L 50.70 653.50 L 55.50 662.20 L 60.80 670.70 L 66.60 678.90 L 72.80 686.80 L 79.40 694.50 L 86.50 701.90 L 94.00 709.10 L 101.80 715.90 L 109.90 722.40 L 118.30 728.70 L 127.10 734.70 L 133.90 738.90 L 140.70 742.50 L 147.40 745.50 L 154.10 748.10 L 168.00 752.00 L 181.90 754.50 L 191.20 755.40 L 200.60 755.90 L 210.00 755.90 L 224.10 755.50 L 266.10 752.40 L 279.90 751.60 L 293.50 751.40 L 302.40 751.80 L 311.20 752.60 L 319.90 753.80 L 326.30 755.20 L 332.60 756.90 L 338.80 759.10 L 345.00 761.60 L 354.20 766.00 L 371.80 775.40 L 410.70 798.10 L 434.00 810.60 L 454.70 820.10 L 465.50 824.40 L 477.20 828.50 L 490.00 832.40 L 509.70 837.40 L 532.40 841.60 L 543.90 843.20 L 569.70 845.70 L 584.10 846.50 L 600.70 847.00 L 615.40 847.00 L 628.40 846.60 L 641.30 845.70 L 652.70 844.50 L 662.80 842.90 L 672.70 840.80 L 681.70 838.30 L 689.60 835.60 L 697.40 832.30 L 704.50 828.80 L 711.10 824.90 L 723.70 816.10 L 729.60 811.20 L 738.30 803.40 L 777.00 765.60 L 789.30 754.50 L 794.60 750.30 L 799.90 746.40 L 805.40 743.00 L 811.10 739.90 L 818.90 736.30 L 826.90 733.20 L 835.10 730.40 L 847.50 726.80 L 885.70 717.20 L 902.40 712.00 L 910.50 708.90 L 918.40 705.40 L 926.10 701.20 L 933.60 696.50 L 938.90 692.50 L 944.10 688.10 L 949.10 683.10 L 954.10 677.60 L 958.50 671.80 L 962.80 665.40 L 967.00 658.10 L 971.00 650.00 L 974.40 641.90 L 977.60 632.80 L 980.60 622.60 L 983.40 611.30 L 985.50 600.30 L 987.40 588.00 L 989.00 574.40 L 990.20 559.30 Z" fill="#ffffff" fill-opacity="0.86" fill-rule="nonzero" group-id="1" node-id="68" stroke="none" target-height="642.1" target-width="956.80005" target-x="33.6" target-y="204.9"></path></g><path d="M 847.60 623.80 L 852.40 612.20 L 842.90 608.30 L 843.60 601.10 L 842.90 593.90 L 852.40 590.00 L 847.60 578.40 L 838.10 582.30 L 833.60 576.70 L 828.00 572.20 L 831.90 562.70 L 820.30 557.90 L 816.40 567.40 L 809.20 566.60 L 802.00 567.40 L 798.10 557.90 L 786.50 562.70 L 790.50 572.20 L 784.80 576.70 L 780.30 582.30 L 770.80 578.40 L 765.90 590.00 L 775.40 593.90 L 774.70 601.10 L 775.40 608.30 L 765.90 612.30 L 770.70 623.90 L 780.20 620.00 L 784.70 625.60 L 790.40 630.20 L 786.40 639.70 L 798.00 644.50 L 801.90 635.00 L 809.10 635.70 L 816.30 635.00 L 820.20 644.50 L 831.80 639.60 L 827.90 630.20 L 833.50 625.60 L 838.10 620.00 Z M 800.70 621.50 L 798.00 620.10 L 793.50 616.60 L 791.60 614.50 L 789.60 611.30 L 788.20 607.80 L 787.30 604.20 L 787.10 601.30 L 787.80 595.60 L 788.80 592.70 L 790.20 590.00 L 793.70 585.50 L 795.80 583.60 L 799.00 581.60 L 802.40 580.20 L 806.10 579.40 L 809.00 579.10 L 814.60 579.90 L 817.50 580.80 L 820.30 582.20 L 824.80 585.70 L 826.60 587.80 L 828.70 591.00 L 830.10 594.40 L 830.90 598.10 L 831.10 601.00 L 830.40 606.60 L 829.50 609.50 L 828.20 612.20 L 824.70 616.70 L 820.20 620.20 L 817.60 621.50 L 814.80 622.40 L 809.10 623.20 L 803.50 622.40 L 800.70 621.50 Z" fill="#ffffff" fill-rule="nonzero" node-id="71" stroke="#0c0426" stroke-linecap="round" stroke-width="1" target-height="86.599976" target-width="86.5" target-x="765.9" target-y="557.9"></path><path d="M 904.80 605.10 L 907.60 598.40 L 902.10 596.10 L 902.50 593.30 L 902.10 587.80 L 907.60 585.50 L 904.80 578.80 L 899.30 581.00 L 895.70 576.80 L 893.40 575.10 L 895.70 569.60 L 889.00 566.80 L 886.70 572.40 L 881.20 572.00 L 878.40 572.40 L 876.10 566.90 L 869.40 569.60 L 871.70 575.10 L 869.40 576.80 L 865.80 581.00 L 860.30 578.80 L 857.50 585.50 L 863.00 587.80 L 862.60 590.50 L 863.00 596.10 L 857.50 598.40 L 860.30 605.10 L 865.80 602.80 L 867.50 605.10 L 871.70 608.70 L 869.40 614.20 L 876.10 617.00 L 878.40 611.50 L 881.20 611.90 L 886.70 611.50 L 889.00 617.00 L 895.70 614.20 L 893.50 608.70 L 895.70 607.00 L 899.30 602.80 Z M 877.70 603.70 L 875.40 602.50 L 873.50 600.90 L 871.90 599.00 L 870.70 596.80 L 870.00 594.50 L 869.80 591.90 L 870.00 589.40 L 870.70 587.00 L 871.90 584.80 L 873.50 582.90 L 875.40 581.40 L 877.60 580.10 L 880.10 579.40 L 882.50 579.20 L 885.00 579.40 L 887.40 580.10 L 889.50 581.30 L 891.50 582.90 L 893.20 584.90 L 894.30 587.10 L 895.00 589.40 L 895.30 591.90 L 895.00 594.30 L 894.30 596.80 L 891.90 600.60 L 888.40 603.20 L 884.30 604.60 L 882.10 604.70 L 877.70 603.70 Z" fill="#ffffff" fill-rule="nonzero" node-id="73" stroke="#0c0426" stroke-linecap="round" stroke-width="1" target-height="50.200012" target-width="50.099976" target-x="857.5" target-y="566.8"></path><path d="M 880.40 657.40 L 882.60 652.10 L 878.30 650.40 L 878.60 648.20 L 878.30 643.80 L 882.60 642.00 L 880.40 636.70 L 876.10 638.50 L 874.70 636.70 L 871.40 633.90 L 873.20 629.50 L 868.00 627.30 L 866.20 631.70 L 864.00 631.40 L 859.70 631.70 L 857.90 627.30 L 852.60 629.60 L 854.40 633.90 L 851.00 636.80 L 849.70 638.50 L 845.40 636.70 L 843.20 642.00 L 847.50 643.80 L 847.20 646.00 L 847.50 650.40 L 843.20 652.20 L 845.40 657.50 L 849.70 655.70 L 851.00 657.50 L 854.30 660.30 L 852.50 664.70 L 857.80 666.80 L 859.60 662.50 L 861.80 662.80 L 866.20 662.50 L 867.90 666.80 L 873.20 664.60 L 871.50 660.30 L 874.80 657.40 L 876.10 655.70 Z M 859.00 656.40 L 857.20 655.50 L 854.50 652.70 L 853.50 651.00 L 853.00 649.20 L 852.80 647.20 L 853.50 643.30 L 855.70 640.00 L 857.20 638.80 L 858.90 637.80 L 860.90 637.30 L 862.80 637.10 L 866.60 637.80 L 869.90 640.00 L 871.20 641.60 L 872.10 643.30 L 872.90 647.10 L 872.10 651.00 L 871.20 652.70 L 870.00 654.20 L 868.40 655.50 L 864.80 657.00 L 860.90 657.00 L 859.00 656.40 Z" fill="#ffffff" fill-rule="nonzero" node-id="75" stroke="#0c0426" stroke-linecap="round" stroke-width="1" target-height="39.5" target-width="39.399963" target-x="843.2" target-y="627.3"></path><path d="M 301.00 252.70 L 123.40 252.70 L 126.10 250.40 L 128.30 249.10 L 130.80 248.10 L 134.10 247.50 L 136.40 247.50 L 141.90 248.60 L 144.00 245.50 L 147.90 241.50 L 150.60 239.70 L 154.70 238.00 L 159.60 237.40 L 162.40 237.70 L 165.50 238.60 L 166.90 234.90 L 169.60 231.00 L 173.20 228.10 L 175.40 227.00 L 178.20 226.10 L 181.50 225.50 L 184.90 225.40 L 189.00 225.80 L 194.00 226.90 L 200.30 219.60 L 203.40 216.50 L 207.40 213.10 L 211.70 210.00 L 216.50 207.10 L 223.50 204.10 L 227.30 203.20 L 231.10 202.60 L 235.00 202.60 L 239.20 203.10 L 245.20 205.00 L 251.70 208.70 L 254.90 211.30 L 257.50 213.90 L 259.40 216.40 L 262.50 221.90 L 264.60 228.40 L 266.80 237.20 L 271.00 235.40 L 277.50 233.90 L 283.80 233.90 L 289.00 235.40 L 291.40 236.70 L 293.80 238.60 L 296.00 241.20 L 297.90 244.10 L 299.50 247.80 L 301.00 252.70 Z" fill="#ffffff" fill-opacity="0" fill-rule="nonzero" node-id="77" stroke="#0c0426" stroke-linecap="round" stroke-opacity="0" stroke-width="1" target-height="50.09999" target-width="177.6" target-x="123.4" target-y="202.6"></path><path d="M 434.30 296.10 L 323.30 296.10 L 325.00 294.70 L 326.80 293.70 L 328.70 293.10 L 330.80 292.80 L 332.80 293.00 L 336.00 293.70 L 338.00 292.30 L 341.50 288.40 L 343.00 287.40 L 344.80 286.70 L 347.70 286.80 L 349.60 287.30 L 351.50 283.50 L 352.70 282.10 L 355.90 280.00 L 359.70 279.10 L 361.80 279.10 L 367.50 280.00 L 372.70 274.10 L 378.60 269.40 L 382.10 267.30 L 385.90 265.70 L 388.60 265.10 L 391.40 264.80 L 394.40 264.90 L 397.30 265.50 L 400.30 266.70 L 403.50 268.60 L 406.40 271.00 L 408.40 273.50 L 409.90 276.00 L 410.90 278.50 L 413.00 286.40 L 416.70 285.00 L 419.30 284.40 L 422.00 284.20 L 425.00 284.60 L 426.80 285.20 L 428.70 286.30 L 430.50 287.90 L 431.90 289.80 L 433.20 292.50 L 434.30 296.10 Z" fill="#ffffff" fill-opacity="0" fill-rule="nonzero" node-id="79" stroke="#0c0426" stroke-linecap="round" stroke-opacity="0" stroke-width="1" target-height="31.300018" target-width="111" target-x="323.3" target-y="264.8"></path><path d="M 921.50 298.90 L 771.90 298.90 L 774.20 297.00 L 778.20 295.00 L 782.80 294.50 L 787.50 295.50 L 789.30 292.80 L 792.60 289.50 L 794.80 287.90 L 797.30 286.80 L 800.30 286.10 L 802.40 286.00 L 807.30 287.00 L 808.50 283.90 L 809.80 281.90 L 811.50 280.00 L 813.90 278.20 L 815.80 277.20 L 820.90 276.00 L 823.70 275.90 L 827.20 276.30 L 831.40 277.10 L 835.30 272.40 L 838.40 269.30 L 842.00 266.10 L 846.30 262.90 L 852.70 259.30 L 856.30 258.00 L 859.90 257.10 L 863.70 256.70 L 867.70 256.90 L 870.60 257.40 L 873.60 258.40 L 876.70 259.80 L 880.00 261.90 L 884.80 266.20 L 886.50 268.40 L 888.50 271.80 L 889.90 275.10 L 892.70 285.80 L 896.30 284.40 L 901.70 283.10 L 907.10 283.10 L 911.40 284.30 L 913.40 285.40 L 915.40 287.00 L 917.30 289.20 L 918.90 291.60 L 920.30 294.80 L 921.50 298.90 Z" fill="#ffffff" fill-opacity="0" fill-rule="nonzero" node-id="81" stroke="none" target-height="42.19998" target-width="149.59998" target-x="771.9" target-y="256.7"></path><path d="M 619.60 763.20 L 893.50 763.20 L 893.50 724.60 L 130.60 724.60 L 130.60 763.20 L 284.80 763.20" fill="#ffffff" fill-rule="nonzero" node-id="83" stroke="#0c0426" stroke-linecap="round" stroke-width="1" target-height="38.600037" target-width="762.9" target-x="130.6" target-y="724.6"></path><path d="M 599.90 763.20 L 561.00 763.20" fill="#ffffff" fill-rule="nonzero" node-id="85" stroke="#0c0426" stroke-linecap="round" stroke-width="1" target-height="0" target-width="38.900024" target-x="561" target-y="763.2"></path><g node-id="177"><path d="M 263.80 341.50 L 786.00 341.50 L 786.00 650.30 L 263.80 650.30 Z" fill="#0c0426" fill-opacity="0.2" fill-rule="nonzero" group-id="2" node-id="89" stroke="none" target-height="308.8" target-width="522.2" target-x="263.8" target-y="341.5"></path><path d="M 330.80 667.80 L 721.80 667.80 L 721.80 687.10 L 330.80 687.10 Z" fill="#0c0426" fill-opacity="0.2" fill-rule="nonzero" group-id="2" node-id="91" stroke="none" target-height="19.299988" target-width="391" target-x="330.8" target-y="667.8"></path><path d="M 330.80 677.10 L 721.80 677.10 L 721.80 687.10 L 330.80 687.10 Z" fill="#0c0426" fill-opacity="0.2" fill-rule="nonzero" group-id="2" node-id="93" stroke="none" target-height="10" target-width="391" target-x="330.8" target-y="677.1"></path><path d="M 245.90 420.30 L 244.90 419.90 L 244.50 418.90 L 244.50 377.50 L 244.90 376.50 L 245.90 376.10 L 246.90 376.50 L 247.30 377.50 L 247.30 418.90 L 246.90 419.90 L 245.90 420.30 Z" fill="#0c0426" fill-opacity="0.2" fill-rule="nonzero" group-id="2" node-id="95" stroke="none" target-height="44.19998" target-width="2.800003" target-x="244.5" target-y="376.1"></path></g><path d="M 245.30 328.20 L 781.00 328.20 L 784.00 328.50 L 786.80 329.20 L 789.40 330.50 L 791.70 332.10 L 793.70 334.10 L 795.30 336.40 L 796.50 339.00 L 797.30 341.80 L 797.60 344.80 L 797.60 697.40 L 228.70 697.40 L 228.70 344.80 L 229.00 341.70 L 229.70 339.00 L 231.00 336.40 L 232.60 334.10 L 234.60 332.10 L 236.90 330.50 L 239.50 329.20 L 242.20 328.50 L 245.30 328.20 Z" fill="#8c71ff" fill-rule="nonzero" node-id="98" stroke="#0c0426" stroke-linecap="round" stroke-width="1" target-height="369.2" target-width="568.89996" target-x="228.7" target-y="328.2"></path><path d="M 252.00 353.30 L 774.20 353.30 L 774.20 662.20 L 252.00 662.20 Z" fill="#ffffff" fill-rule="nonzero" node-id="100" stroke="#0c0426" stroke-linecap="round" stroke-width="1" target-height="308.90002" target-width="522.2" target-x="252" target-y="353.3"></path><path d="M 319.00 679.70 L 709.90 679.70 L 709.90 698.90 L 319.00 698.90 Z" fill="#0c0426" fill-rule="nonzero" node-id="102" stroke="none" target-height="19.200012" target-width="390.90002" target-x="319" target-y="679.7"></path><path d="M 319.00 688.90 L 709.90 688.90 L 709.90 698.90 L 319.00 698.90 Z" fill="#ffffff" fill-rule="nonzero" node-id="104" stroke="#0c0426" stroke-linecap="round" stroke-width="1" target-height="10" target-width="390.90002" target-x="319" target-y="688.9"></path><path d="M 182.70 710.30 L 185.60 713.00 L 191.60 717.10 L 201.50 722.00 L 208.40 724.60 L 820.50 724.60 L 825.20 723.00 L 831.80 719.70 L 837.50 715.50 L 841.20 711.00 Z" fill="#0c0426" fill-rule="nonzero" node-id="106" stroke="none" target-height="14.299988" target-width="658.5" target-x="182.7" target-y="710.3"></path><path d="M 184.40 696.30 L 839.60 696.30 L 840.80 696.50 L 841.70 697.10 L 842.40 698.10 L 842.60 699.30 L 842.60 708.30 L 842.40 709.40 L 841.70 710.40 L 840.80 711.00 L 839.60 711.30 L 184.40 711.30 L 183.20 711.00 L 182.30 710.40 L 181.60 709.40 L 181.40 708.30 L 181.40 699.30 L 181.60 698.10 L 182.30 697.10 L 183.20 696.50 L 184.40 696.30 Z" fill="#8c71ff" fill-rule="nonzero" node-id="108" stroke="#0c0426" stroke-linecap="round" stroke-width="1" target-height="15" target-width="661.19995" target-x="181.4" target-y="696.3"></path><path d="M 518.00 339.40 L 517.80 338.00 L 516.50 335.80 L 514.40 334.60 L 513.00 334.40 L 510.50 335.00 L 508.70 336.80 L 508.20 338.00 L 508.00 339.40 L 508.70 341.90 L 510.50 343.70 L 513.00 344.40 L 514.40 344.20 L 516.50 342.90 L 517.80 340.70 L 518.00 339.40 Z" fill="#ffffff" fill-rule="nonzero" node-id="110" stroke="#ffffff" stroke-linecap="round" stroke-width="1" target-height="10" target-width="10" target-x="508" target-y="334.4"></path><path d="M 234.10 432.10 L 233.10 431.70 L 232.60 430.70 L 232.60 389.30 L 232.80 388.70 L 233.50 388.00 L 234.60 388.00 L 235.40 388.70 L 235.50 389.30 L 235.50 430.70 L 235.10 431.70 L 234.10 432.10 Z" fill="#0c0426" fill-rule="nonzero" node-id="112" stroke="none" target-height="44.100006" target-width="2.899994" target-x="232.6" target-y="388"></path><path d="M 280.10 376.60 L 500.00 376.60 L 500.00 504.90 L 280.10 504.90 Z" fill="#ffffff" fill-rule="nonzero" node-id="114" stroke="#0c0426" stroke-linecap="round" stroke-width="1" target-height="128.29999" target-width="219.9" target-x="280.1" target-y="376.6"></path><path d="M 328.60 409.50 L 328.40 412.20 L 327.70 414.60 L 326.70 416.90 L 325.20 418.90 L 323.50 420.60 L 321.50 422.10 L 319.30 423.10 L 316.90 423.80 L 314.30 424.00 L 311.60 423.80 L 309.20 423.10 L 307.00 422.10 L 305.00 420.60 L 303.30 418.90 L 301.90 416.90 L 300.80 414.60 L 300.10 412.20 L 299.90 409.50 L 300.10 406.90 L 300.80 404.50 L 301.90 402.20 L 303.30 400.20 L 305.00 398.50 L 307.00 397.00 L 309.20 395.90 L 311.60 395.30 L 314.30 395.00 L 316.90 395.30 L 319.30 395.90 L 321.50 397.00 L 323.50 398.50 L 325.20 400.20 L 326.70 402.20 L 327.70 404.50 L 328.40 406.90 L 328.60 409.50 Z" fill="#ffffff" fill-rule="nonzero" node-id="116" stroke="#0c0426" stroke-linecap="round" stroke-width="1" target-height="29" target-width="28.700012" target-x="299.9" target-y="395"></path><path d="M 414.20 370.40 L 505.40 370.40 L 505.40 457.80 L 414.20 457.80 Z" fill="#ffffff" fill-rule="nonzero" node-id="118" stroke="none" target-height="87.399994" target-width="91.19998" target-x="414.2" target-y="370.4"></path><path d="M 500.00 505.00 L 280.10 505.00 L 359.50 448.70 L 402.40 470.60 L 453.40 429.50 L 500.00 456.60 L 500.00 505.00 Z" fill="#ffffff" fill-rule="nonzero" node-id="120" stroke="#0c0426" stroke-linecap="round" stroke-width="1" target-height="75.5" target-width="219.9" target-x="280.1" target-y="429.5"></path><path d="M 501.80 392.50 L 501.50 396.60 L 500.70 400.40 L 499.40 404.10 L 497.70 407.50 L 495.60 410.70 L 493.10 413.50 L 490.30 416.00 L 487.20 418.20 L 483.70 419.90 L 480.10 421.20 L 476.30 422.00 L 472.30 422.20 L 468.20 422.00 L 464.40 421.20 L 460.80 419.90 L 457.40 418.20 L 454.20 416.00 L 451.40 413.50 L 448.90 410.70 L 446.80 407.50 L 445.10 404.10 L 443.80 400.40 L 443.00 396.60 L 442.80 392.50 L 443.00 388.40 L 443.80 384.50 L 445.10 380.90 L 446.80 377.40 L 448.90 374.30 L 451.40 371.40 L 454.20 368.90 L 457.40 366.80 L 460.80 365.10 L 464.40 363.80 L 468.20 363.00 L 472.30 362.70 L 476.30 363.00 L 480.10 363.80 L 483.70 365.10 L 487.20 366.80 L 490.30 368.90 L 493.10 371.40 L 495.60 374.30 L 497.70 377.40 L 499.40 380.90 L 500.70 384.50 L 501.50 388.40 L 501.80 392.50 Z" fill="#ffffff" fill-rule="nonzero" node-id="122" stroke="#0c0426" stroke-linecap="round" stroke-width="1" target-height="59.5" target-width="59" target-x="442.8" target-y="362.7"></path><path d="M 472.30 373.60 L 472.30 400.90" fill="none" node-id="124" stroke="#0c0426" stroke-linecap="round" stroke-width="5" target-height="27.299988" target-width="0" target-x="472.3" target-y="373.6"></path><path d="M 472.30 407.90 L 472.30 409.50" fill="none" node-id="126" stroke="#0c0426" stroke-linecap="round" stroke-width="5" target-height="1.6000061" target-width="0" target-x="472.3" target-y="407.9"></path><path d="M 535.60 526.30 L 744.20 526.30 L 744.20 648.10 L 535.60 648.10 Z" fill="#ffffff" fill-rule="nonzero" node-id="128" stroke="#0c0426" stroke-linecap="round" stroke-width="1" target-height="121.79999" target-width="208.60004" target-x="535.6" target-y="526.3"></path><path d="M 581.60 557.60 L 581.40 560.30 L 580.60 562.90 L 579.40 565.20 L 577.60 567.30 L 575.60 569.10 L 573.20 570.30 L 570.70 571.10 L 568.00 571.40 L 565.30 571.10 L 562.80 570.30 L 560.50 569.10 L 558.40 567.30 L 556.70 565.20 L 555.40 562.90 L 554.60 560.30 L 554.40 557.60 L 554.60 554.90 L 555.40 552.30 L 556.70 550.00 L 558.40 547.90 L 560.50 546.10 L 562.80 544.90 L 565.30 544.10 L 568.00 543.80 L 570.70 544.10 L 573.20 544.90 L 575.60 546.10 L 577.60 547.90 L 579.40 550.00 L 580.60 552.30 L 581.40 554.90 L 581.60 557.60 Z" fill="#ffffff" fill-rule="nonzero" node-id="130" stroke="#0c0426" stroke-linecap="round" stroke-width="1" target-height="27.600037" target-width="27.199951" target-x="554.4" target-y="543.8"></path><path d="M 662.80 520.40 L 749.40 520.40 L 749.40 603.40 L 662.80 603.40 Z" fill="#ffffff" fill-rule="nonzero" node-id="132" stroke="none" target-height="83" target-width="86.60004" target-x="662.8" target-y="520.4"></path><path d="M 744.20 648.20 L 535.60 648.20 L 610.90 594.80 L 651.60 615.50 L 700.00 576.50 L 744.20 602.30 L 744.20 648.20 Z" fill="#ffffff" fill-rule="nonzero" node-id="134" stroke="#0c0426" stroke-linecap="round" stroke-width="1" target-height="71.70001" target-width="208.60004" target-x="535.6" target-y="576.5"></path><path d="M 745.90 541.40 L 745.60 545.30 L 744.90 548.90 L 743.70 552.40 L 742.10 555.70 L 740.10 558.70 L 737.70 561.40 L 735.00 563.80 L 732.00 565.80 L 728.80 567.40 L 725.40 568.60 L 721.70 569.40 L 717.90 569.60 L 714.10 569.40 L 710.40 568.60 L 707.00 567.40 L 703.80 565.80 L 700.80 563.80 L 698.10 561.40 L 695.70 558.70 L 693.70 555.70 L 692.10 552.40 L 690.90 548.90 L 690.20 545.30 L 689.90 541.40 L 690.20 537.50 L 690.90 533.90 L 692.10 530.40 L 693.70 527.10 L 695.70 524.20 L 698.10 521.40 L 700.80 519.10 L 703.80 517.00 L 707.00 515.40 L 710.40 514.20 L 714.10 513.40 L 717.90 513.20 L 721.70 513.40 L 725.40 514.20 L 728.80 515.40 L 732.00 517.00 L 735.00 519.10 L 737.70 521.40 L 740.10 524.20 L 742.10 527.10 L 743.70 530.40 L 744.90 533.90 L 745.60 537.50 L 745.90 541.40 Z" fill="#ffffff" fill-rule="nonzero" node-id="136" stroke="#0c0426" stroke-linecap="round" stroke-width="1" target-height="56.399963" target-width="56" target-x="689.9" target-y="513.2"></path><path d="M 717.90 523.50 L 717.90 549.40" fill="none" node-id="138" stroke="#0c0426" stroke-linecap="round" stroke-width="5" target-height="25.900024" target-width="0" target-x="717.9" target-y="523.5"></path><path d="M 717.90 556.10 L 717.90 557.60" fill="none" node-id="140" stroke="#0c0426" stroke-linecap="round" stroke-width="5" target-height="1.5" target-width="0" target-x="717.9" target-y="556.1"></path><path d="M 735.10 379.80 L 731.70 377.70 L 727.80 376.90 L 648.50 374.30 L 642.50 385.50 L 650.80 406.70 L 635.90 430.70 L 641.90 450.00 L 657.00 466.60 L 678.90 449.50 L 681.30 448.50 L 683.90 448.60 L 685.10 449.00 L 714.30 475.50 L 715.20 476.60 L 715.60 477.80 L 715.70 479.10 L 715.30 480.40 L 714.30 481.60 L 711.80 482.90 L 710.30 483.00 L 633.30 480.40 L 629.50 489.80 L 633.70 498.20 L 722.10 501.10 L 724.90 500.90 L 727.40 500.10 L 729.60 498.70 L 731.30 497.00 L 732.10 495.60 L 732.90 492.60 L 737.90 386.10 L 737.70 384.30 L 737.20 382.60 L 735.10 379.80 Z" fill="#8c71ff" fill-rule="nonzero" node-id="142" stroke="#0c0426" stroke-linecap="round" stroke-width="1" target-height="126.80002" target-width="108.400024" target-x="629.5" target-y="374.3"></path><path d="M 686.80 424.30 L 681.90 423.30 L 677.70 421.00 L 674.40 417.50 L 672.20 413.20 L 671.60 410.80 L 671.40 408.20 L 672.20 403.50 L 674.30 399.20 L 677.60 395.70 L 681.90 393.30 L 686.70 392.30 L 691.50 392.80 L 695.90 394.70 L 699.60 397.80 L 701.10 399.90 L 703.00 404.50 L 703.40 409.30 L 702.40 413.90 L 701.40 416.10 L 698.30 420.00 L 695.80 421.90 L 693.00 423.30 L 689.90 424.10 L 686.80 424.30 Z" fill="#ffffff" fill-rule="nonzero" node-id="144" stroke="#0c0426" stroke-linecap="round" stroke-width="1" target-height="32" target-width="32" target-x="671.4" target-y="392.3"></path><path d="M 621.30 489.90 L 624.00 480.10 L 561.50 483.80 L 560.00 483.70 L 557.40 482.40 L 556.40 481.30 L 555.90 480.00 L 555.90 478.70 L 556.30 477.50 L 557.20 476.40 L 603.50 431.40 L 604.70 430.50 L 607.40 429.80 L 608.80 430.00 L 611.20 431.20 L 626.70 444.90 L 620.00 430.30 L 631.80 405.10 L 621.00 384.90 L 625.50 373.20 L 538.30 378.50 L 534.70 380.00 L 531.90 382.60 L 530.60 385.90 L 530.60 387.70 L 539.20 494.00 L 539.50 495.80 L 541.30 498.80 L 544.40 501.00 L 546.30 501.70 L 550.30 502.20 L 626.40 497.70 L 621.30 489.90 Z" fill="#8c71ff" fill-rule="nonzero" node-id="146" stroke="#0c0426" stroke-linecap="round" stroke-width="1" target-height="129" target-width="101.20001" target-x="530.6" target-y="373.2"></path><path d="M 489.20 526.30 L 485.80 524.20 L 481.90 523.40 L 402.60 520.80 L 396.60 532.00 L 404.90 553.20 L 389.90 577.20 L 396.00 596.50 L 411.10 613.10 L 433.00 596.00 L 435.40 594.90 L 438.00 595.00 L 439.20 595.50 L 440.40 596.30 L 468.40 622.00 L 469.30 623.00 L 469.70 624.30 L 469.80 625.60 L 469.30 626.90 L 468.40 628.00 L 465.80 629.40 L 464.30 629.50 L 387.40 626.90 L 383.50 636.30 L 387.70 644.70 L 476.10 647.60 L 479.00 647.30 L 481.50 646.50 L 483.70 645.20 L 485.40 643.50 L 486.20 642.10 L 487.00 639.00 L 492.00 532.60 L 491.90 530.80 L 491.40 529.10 L 489.30 526.30 Z" fill="#8c71ff" fill-rule="nonzero" node-id="148" stroke="#0c0426" stroke-linecap="round" stroke-width="1" target-height="126.79999" target-width="108.5" target-x="383.5" target-y="520.8"></path><path d="M 440.90 570.80 L 436.00 569.80 L 433.80 568.80 L 430.00 565.90 L 427.20 562.00 L 426.30 559.70 L 425.70 557.30 L 425.50 554.70 L 426.30 550.00 L 427.20 547.70 L 429.90 543.80 L 433.70 540.80 L 436.00 539.80 L 440.80 538.80 L 443.20 538.90 L 447.90 540.10 L 451.90 542.60 L 453.70 544.30 L 455.20 546.40 L 456.30 548.70 L 457.10 551.00 L 457.50 555.80 L 456.50 560.40 L 455.50 562.60 L 452.40 566.50 L 449.90 568.40 L 447.00 569.80 L 444.00 570.60 L 440.90 570.80 Z" fill="#ffffff" fill-rule="nonzero" node-id="150" stroke="#0c0426" stroke-linecap="round" stroke-width="1" target-height="32" target-width="32" target-x="425.5" target-y="538.8"></path><path d="M 375.40 636.40 L 378.00 626.60 L 315.60 630.30 L 314.10 630.20 L 311.50 628.90 L 310.50 627.80 L 310.00 626.50 L 310.00 625.20 L 310.40 624.00 L 311.20 622.90 L 357.60 577.80 L 358.70 577.00 L 360.00 576.50 L 362.80 576.50 L 365.30 577.70 L 380.70 591.40 L 374.10 576.80 L 385.90 551.60 L 375.00 531.40 L 379.50 519.70 L 292.30 525.00 L 288.70 526.50 L 285.90 529.10 L 284.60 532.30 L 284.60 534.20 L 293.20 640.40 L 293.60 642.20 L 295.40 645.30 L 298.50 647.50 L 300.40 648.20 L 304.30 648.70 L 380.40 644.20 L 375.30 636.40 Z" fill="#8c71ff" fill-rule="nonzero" node-id="152" stroke="#0c0426" stroke-linecap="round" stroke-width="1" target-height="129" target-width="101.29999" target-x="284.6" target-y="519.7"></path><path d="M 225.40 689.10 L 220.30 688.20 L 215.00 686.20 L 211.10 683.20 L 209.10 679.70 L 208.00 673.40 L 207.80 669.40 L 208.30 660.80 L 209.10 656.90 L 210.80 652.40 L 211.80 650.90 L 213.40 649.50 L 215.00 648.60 L 216.70 648.10 L 219.40 648.00 L 221.80 648.50 L 225.80 650.30 L 226.80 651.30 L 227.30 652.50 L 227.30 653.90 L 226.80 655.20 L 225.80 656.20 L 224.60 656.70 L 223.20 656.70 L 218.90 655.00 L 217.80 655.00 L 217.00 655.50 L 216.30 656.80 L 215.60 659.30 L 214.90 665.50 L 214.90 672.20 L 215.20 675.30 L 215.70 677.50 L 216.50 678.70 L 219.70 680.70 L 227.00 682.50 L 228.00 683.30 L 228.60 684.40 L 228.80 685.80 L 228.50 687.10 L 227.80 688.10 L 226.70 688.80 L 225.40 689.10 Z" fill="#0c0426" fill-rule="nonzero" node-id="154" stroke="none" target-height="41.099976" target-width="21" target-x="207.8" target-y="648"></path><path d="M 223.40 644.60 L 265.50 644.60 L 265.50 696.30 L 223.40 696.30 Z" fill="#0c0426" fill-rule="nonzero" node-id="156" stroke="none" target-height="51.700012" target-width="42.100006" target-x="223.4" target-y="644.6"></path><path d="M 233.90 637.50 L 233.20 631.80 L 234.10 626.20 L 235.00 623.60 L 236.30 621.00 L 238.40 618.20 L 245.70 611.50 L 248.40 608.10 L 250.20 603.70 L 250.70 601.00 L 250.80 597.50" fill="none" node-id="158" stroke="#0c0426" stroke-linecap="round" stroke-width="1" target-height="40" target-width="17.600006" target-x="233.2" target-y="597.5"></path><path d="M 259.80 616.00 L 251.70 628.20 L 250.60 630.80 L 250.10 633.50 L 249.80 637.50" fill="none" node-id="160" stroke="#0c0426" stroke-linecap="round" stroke-width="1" target-height="21.5" target-width="9.999985" target-x="249.8" target-y="616"></path><path d="M 264.30 607.00 L 265.50 603.20 L 266.30 599.40 L 266.50 595.50 L 266.30 591.50" fill="none" node-id="162" stroke="#0c0426" stroke-linecap="round" stroke-width="1" target-height="15.5" target-width="2.2000122" target-x="264.3" target-y="591.5"></path><path d="M 265.50 658.70 L 252.40 658.70" fill="none" node-id="164" stroke="#ffffff" stroke-linecap="round" stroke-width="1" target-height="0" target-width="13.100006" target-x="252.4" target-y="658.7"></path><path d="M 265.50 667.20 L 239.40 667.20" fill="none" node-id="166" stroke="#ffffff" stroke-linecap="round" stroke-width="1" target-height="0" target-width="26.100006" target-x="239.4" target-y="667.2"></path><path d="M 265.50 675.80 L 247.90 675.80" fill="none" node-id="168" stroke="#ffffff" stroke-linecap="round" stroke-width="1" target-height="0" target-width="17.600006" target-x="247.9" target-y="675.8"></path><path d="M 265.50 684.40 L 243.20 684.40" fill="none" node-id="170" stroke="#ffffff" stroke-linecap="round" stroke-width="1" target-height="0" target-width="22.300003" target-x="243.2" target-y="684.4"></path><path d="M 873.20 763.20 L 942.00 763.20" fill="none" node-id="172" stroke="#0c0426" stroke-linecap="butt" stroke-width="1" target-height="0" target-width="68.79999" target-x="873.2" target-y="763.2"></path><path d="M 82.00 763.20 L 140.20 763.20" fill="none" node-id="174" stroke="#0c0426" stroke-linecap="butt" stroke-width="1" target-height="0" target-width="58.199997" target-x="82" target-y="763.2"></path></svg>