<?xml version="1.0" standalone="no"?><!DOCTYPE svg PUBLIC "-//W3C//DTD SVG 1.1//EN" "http://www.w3.org/Graphics/SVG/1.1/DTD/svg11.dtd"><svg t="1723863126557" class="icon" viewBox="0 0 1024 1024" version="1.1" xmlns="http://www.w3.org/2000/svg" p-id="8750" xmlns:xlink="http://www.w3.org/1999/xlink" width="200" height="200"><path d="M256 0h512q256 0 256 256v512q0 256-256 256H256Q0 1024 0 768V256Q0 0 256 0z" fill="#6A30F5" p-id="8751"></path><path d="M179.2 310.669h537.6q51.2 0 51.2 51.2v320q0 51.2-51.2 51.2H179.2q-51.2 0-51.2-51.2v-320q0-51.2 51.2-51.2z" fill="#FFFFFF" p-id="8752"></path><path d="M204.8 528.269a51.2 51.2 0 1 0 102.4 0 51.2 51.2 0 1 0-102.4 0zM396.8 528.269a51.2 51.2 0 1 0 102.4 0 51.2 51.2 0 1 0-102.4 0zM588.8 528.269a51.2 51.2 0 1 0 102.4 0 51.2 51.2 0 1 0-102.4 0z" fill="#6A30F5" p-id="8753"></path><path d="M425.306 803.162a25.6 25.6 0 0 1-44.084 0v-69.876A25.6 25.6 0 0 1 403.2 694.67H480a25.6 25.6 0 0 1 21.978 38.617zM339.2 208.269h499.2q32 0 32 32t-32 32H339.2q-32 0-32-32t32-32z" fill="#FFFFFF" p-id="8754"></path><path d="M870.4 246.669v384q0 32-32 32t-32-32v-384q0-32 32-32t32 32z" fill="#FFFFFF" p-id="8755"></path></svg>